<svg width="50" height="50" viewBox="0 0 50 50" fill="none" xmlns="http://www.w3.org/2000/svg">
<g filter="url(#filter0_d_144_20)">
<circle cx="25" cy="25" r="15" fill="url(#paint0_linear_144_20)"/>
</g>
<path d="M23.4712 29.1342V28.8647C23.4765 27.9401 23.5584 27.2031 23.7169 26.6537C23.8807 26.1042 24.1184 25.6604 24.4301 25.3223C24.7419 24.9842 25.117 24.6778 25.5555 24.403C25.883 24.1917 26.1763 23.9724 26.4351 23.7453C26.694 23.5181 26.9001 23.2671 27.0533 22.9924C27.2065 22.7124 27.2831 22.4007 27.2831 22.0573C27.2831 21.6927 27.1959 21.3731 27.0216 21.0984C26.8472 20.8236 26.6121 20.6123 26.3163 20.4644C26.0257 20.3165 25.7034 20.2425 25.3494 20.2425C25.006 20.2425 24.6811 20.3191 24.3747 20.4723C24.0682 20.6202 23.8173 20.8421 23.6218 21.138C23.4263 21.4286 23.3207 21.7905 23.3048 22.2237H20.0715C20.0979 21.1671 20.3515 20.2953 20.8323 19.6085C21.313 18.9164 21.9497 18.4013 22.7422 18.0632C23.5346 17.7198 24.409 17.548 25.3653 17.548C26.4166 17.548 27.3465 17.7224 28.1548 18.0711C28.9632 18.4145 29.5971 18.9138 30.0568 19.5689C30.5164 20.224 30.7462 21.0138 30.7462 21.9384C30.7462 22.5565 30.6432 23.106 30.4372 23.5868C30.2364 24.0623 29.9538 24.4849 29.5892 24.8547C29.2247 25.2193 28.7941 25.5495 28.2975 25.8453C27.8801 26.0937 27.5367 26.3525 27.2672 26.622C27.0031 26.8914 26.805 27.2031 26.6729 27.5571C26.5461 27.9111 26.48 28.347 26.4748 28.8647V29.1342H23.4712ZM25.0404 34.206C24.512 34.206 24.0603 34.0211 23.6852 33.6513C23.3154 33.2762 23.1331 32.8271 23.1384 32.3041C23.1331 31.7863 23.3154 31.3425 23.6852 30.9727C24.0603 30.6029 24.512 30.418 25.0404 30.418C25.5423 30.418 25.9834 30.6029 26.3638 30.9727C26.7442 31.3425 26.937 31.7863 26.9423 32.3041C26.937 32.6528 26.8446 32.9724 26.665 33.263C26.4906 33.5483 26.2608 33.7781 25.9755 33.9525C25.6902 34.1215 25.3785 34.206 25.0404 34.206Z" fill="white"/>
<defs>
<filter id="filter0_d_144_20" x="0" y="0" width="50" height="50" filterUnits="userSpaceOnUse" color-interpolation-filters="sRGB">
<feFlood flood-opacity="0" result="BackgroundImageFix"/>
<feColorMatrix in="SourceAlpha" type="matrix" values="0 0 0 0 0 0 0 0 0 0 0 0 0 0 0 0 0 0 127 0" result="hardAlpha"/>
<feOffset/>
<feGaussianBlur stdDeviation="5"/>
<feColorMatrix type="matrix" values="0 0 0 0 0.364706 0 0 0 0 0.34902 0 0 0 0 0.415686 0 0 0 0.7 0"/>
<feBlend mode="normal" in2="BackgroundImageFix" result="effect1_dropShadow_144_20"/>
<feBlend mode="normal" in="SourceGraphic" in2="effect1_dropShadow_144_20" result="shape"/>
</filter>
<linearGradient id="paint0_linear_144_20" x1="10.1934" y1="10" x2="10.1934" y2="39.6132" gradientUnits="userSpaceOnUse">
<stop stop-color="#A3A49E"/>
<stop offset="1" stop-color="#9298A4"/>
</linearGradient>
</defs>
</svg>
