<svg width="724" height="456" viewBox="0 0 724 456" fill="none" xmlns="http://www.w3.org/2000/svg">
<rect width="724" height="456" rx="40" fill="#F6F8FC"/>
<rect x="246" y="210" width="416" height="144" rx="24" fill="white" stroke="#EBEFF6" stroke-width="1.5"/>
<rect x="62" y="210" width="144" height="144" rx="24" fill="white" stroke="#EBEFF6" stroke-width="1.5"/>
<path d="M64.0227 138V114.727H73.2045C74.9697 114.727 76.4735 115.064 77.7159 115.739C78.9583 116.405 79.9053 117.333 80.5568 118.523C81.2159 119.705 81.5455 121.068 81.5455 122.614C81.5455 124.159 81.2121 125.523 80.5455 126.705C79.8788 127.886 78.9129 128.807 77.6477 129.466C76.3902 130.125 74.8674 130.455 73.0795 130.455H67.2273V126.511H72.2841C73.2311 126.511 74.0114 126.348 74.625 126.023C75.2462 125.689 75.7083 125.231 76.0114 124.648C76.322 124.057 76.4773 123.379 76.4773 122.614C76.4773 121.841 76.322 121.167 76.0114 120.591C75.7083 120.008 75.2462 119.557 74.625 119.239C74.0038 118.913 73.2159 118.75 72.2614 118.75H68.9432V138H64.0227ZM84.6506 138V120.545H89.4915V138H84.6506ZM87.0824 118.295C86.3627 118.295 85.7453 118.057 85.2301 117.58C84.7225 117.095 84.4688 116.515 84.4688 115.841C84.4688 115.174 84.7225 114.602 85.2301 114.125C85.7453 113.64 86.3627 113.398 87.0824 113.398C87.8021 113.398 88.4157 113.64 88.9233 114.125C89.4384 114.602 89.696 115.174 89.696 115.841C89.696 116.515 89.4384 117.095 88.9233 117.58C88.4157 118.057 87.8021 118.295 87.0824 118.295ZM98.2102 127.909V138H93.3693V120.545H97.983V123.625H98.1875C98.5739 122.61 99.2216 121.807 100.131 121.216C101.04 120.617 102.142 120.318 103.438 120.318C104.65 120.318 105.706 120.583 106.608 121.114C107.509 121.644 108.21 122.402 108.71 123.386C109.21 124.364 109.46 125.53 109.46 126.886V138H104.619V127.75C104.627 126.682 104.354 125.848 103.801 125.25C103.248 124.644 102.487 124.341 101.517 124.341C100.866 124.341 100.29 124.481 99.7898 124.761C99.2973 125.042 98.911 125.451 98.6307 125.989C98.358 126.519 98.2178 127.159 98.2102 127.909ZM122.56 120.545V124.182H112.048V120.545H122.56ZM114.435 116.364H119.276V132.636C119.276 133.083 119.344 133.432 119.48 133.682C119.616 133.924 119.806 134.095 120.048 134.193C120.298 134.292 120.586 134.341 120.912 134.341C121.139 134.341 121.366 134.322 121.594 134.284C121.821 134.239 121.995 134.205 122.116 134.182L122.878 137.784C122.635 137.86 122.295 137.947 121.855 138.045C121.416 138.152 120.882 138.216 120.253 138.239C119.086 138.284 118.063 138.129 117.185 137.773C116.313 137.417 115.635 136.864 115.151 136.114C114.666 135.364 114.427 134.417 114.435 133.273V116.364ZM133.48 138.341C131.685 138.341 130.139 137.977 128.844 137.25C127.556 136.515 126.563 135.477 125.866 134.136C125.17 132.788 124.821 131.193 124.821 129.352C124.821 127.557 125.17 125.981 125.866 124.625C126.563 123.269 127.545 122.212 128.81 121.455C130.082 120.697 131.575 120.318 133.287 120.318C134.438 120.318 135.51 120.504 136.503 120.875C137.503 121.239 138.374 121.788 139.116 122.523C139.866 123.258 140.45 124.182 140.866 125.295C141.283 126.402 141.491 127.697 141.491 129.182V130.511H126.753V127.511H136.935C136.935 126.814 136.783 126.197 136.48 125.659C136.177 125.121 135.757 124.701 135.219 124.398C134.688 124.087 134.071 123.932 133.366 123.932C132.632 123.932 131.98 124.102 131.412 124.443C130.851 124.777 130.412 125.227 130.094 125.795C129.776 126.356 129.613 126.981 129.605 127.67V130.523C129.605 131.386 129.764 132.133 130.082 132.761C130.408 133.39 130.866 133.875 131.457 134.216C132.048 134.557 132.749 134.727 133.56 134.727C134.098 134.727 134.59 134.652 135.037 134.5C135.484 134.348 135.866 134.121 136.185 133.818C136.503 133.515 136.745 133.144 136.912 132.705L141.389 133C141.162 134.076 140.696 135.015 139.991 135.818C139.295 136.614 138.393 137.235 137.287 137.682C136.188 138.121 134.92 138.341 133.48 138.341ZM144.651 138V120.545H149.344V123.591H149.526C149.844 122.508 150.378 121.689 151.128 121.136C151.878 120.576 152.741 120.295 153.719 120.295C153.961 120.295 154.223 120.311 154.503 120.341C154.783 120.371 155.029 120.413 155.241 120.466V124.761C155.014 124.693 154.7 124.633 154.298 124.58C153.897 124.527 153.529 124.5 153.196 124.5C152.484 124.5 151.848 124.655 151.287 124.966C150.734 125.269 150.295 125.693 149.969 126.239C149.651 126.784 149.491 127.413 149.491 128.125V138H144.651ZM164.886 138.341C163.091 138.341 161.545 137.977 160.25 137.25C158.962 136.515 157.97 135.477 157.273 134.136C156.576 132.788 156.227 131.193 156.227 129.352C156.227 127.557 156.576 125.981 157.273 124.625C157.97 123.269 158.951 122.212 160.216 121.455C161.489 120.697 162.981 120.318 164.693 120.318C165.845 120.318 166.917 120.504 167.909 120.875C168.909 121.239 169.78 121.788 170.523 122.523C171.273 123.258 171.856 124.182 172.273 125.295C172.689 126.402 172.898 127.697 172.898 129.182V130.511H158.159V127.511H168.341C168.341 126.814 168.189 126.197 167.886 125.659C167.583 125.121 167.163 124.701 166.625 124.398C166.095 124.087 165.477 123.932 164.773 123.932C164.038 123.932 163.386 124.102 162.818 124.443C162.258 124.777 161.818 125.227 161.5 125.795C161.182 126.356 161.019 126.981 161.011 127.67V130.523C161.011 131.386 161.17 132.133 161.489 132.761C161.814 133.39 162.273 133.875 162.864 134.216C163.455 134.557 164.155 134.727 164.966 134.727C165.504 134.727 165.996 134.652 166.443 134.5C166.89 134.348 167.273 134.121 167.591 133.818C167.909 133.515 168.152 133.144 168.318 132.705L172.795 133C172.568 134.076 172.102 135.015 171.398 135.818C170.701 136.614 169.799 137.235 168.693 137.682C167.595 138.121 166.326 138.341 164.886 138.341ZM190.58 125.523L186.148 125.795C186.072 125.417 185.909 125.076 185.659 124.773C185.409 124.462 185.08 124.216 184.67 124.034C184.269 123.845 183.788 123.75 183.227 123.75C182.477 123.75 181.845 123.909 181.33 124.227C180.814 124.538 180.557 124.955 180.557 125.477C180.557 125.894 180.723 126.246 181.057 126.534C181.39 126.822 181.962 127.053 182.773 127.227L185.932 127.864C187.629 128.212 188.894 128.773 189.727 129.545C190.561 130.318 190.977 131.333 190.977 132.591C190.977 133.735 190.64 134.739 189.966 135.602C189.299 136.466 188.383 137.14 187.216 137.625C186.057 138.102 184.72 138.341 183.205 138.341C180.894 138.341 179.053 137.86 177.682 136.898C176.318 135.928 175.519 134.61 175.284 132.943L180.045 132.693C180.189 133.398 180.538 133.936 181.091 134.307C181.644 134.67 182.352 134.852 183.216 134.852C184.064 134.852 184.746 134.689 185.261 134.364C185.784 134.03 186.049 133.602 186.057 133.08C186.049 132.64 185.864 132.28 185.5 132C185.136 131.712 184.576 131.492 183.818 131.341L180.795 130.739C179.091 130.398 177.822 129.807 176.989 128.966C176.163 128.125 175.75 127.053 175.75 125.75C175.75 124.629 176.053 123.663 176.659 122.852C177.273 122.042 178.133 121.417 179.239 120.977C180.352 120.538 181.655 120.318 183.148 120.318C185.352 120.318 187.087 120.784 188.352 121.716C189.625 122.648 190.367 123.917 190.58 125.523ZM203.31 120.545V124.182H192.798V120.545H203.31ZM195.185 116.364H200.026V132.636C200.026 133.083 200.094 133.432 200.23 133.682C200.366 133.924 200.556 134.095 200.798 134.193C201.048 134.292 201.336 134.341 201.662 134.341C201.889 134.341 202.116 134.322 202.344 134.284C202.571 134.239 202.745 134.205 202.866 134.182L203.628 137.784C203.385 137.86 203.045 137.947 202.605 138.045C202.166 138.152 201.632 138.216 201.003 138.239C199.836 138.284 198.813 138.129 197.935 137.773C197.063 137.417 196.385 136.864 195.901 136.114C195.416 135.364 195.177 134.417 195.185 133.273V116.364Z" fill="#000008"/>
<a href="https://help.pinterest.com/en/guide/all-about-pinterest">
<rect fill="black" fill-opacity="0" y="4.63636" width="142.526" height="38.7273"/>
</a>
<path d="M468.631 126.455C468.631 127.835 468.381 129.028 467.883 130.034C467.384 131.04 466.7 131.815 465.831 132.361C464.962 132.906 463.969 133.179 462.852 133.179C461.736 133.179 460.743 132.906 459.874 132.361C459.004 131.815 458.32 131.04 457.822 130.034C457.323 129.028 457.074 127.835 457.074 126.455C457.074 125.074 457.323 123.881 457.822 122.875C458.32 121.869 459.004 121.094 459.874 120.548C460.743 120.003 461.736 119.73 462.852 119.73C463.969 119.73 464.962 120.003 465.831 120.548C466.7 121.094 467.384 121.869 467.883 122.875C468.381 123.881 468.631 125.074 468.631 126.455ZM467.097 126.455C467.097 125.321 466.907 124.364 466.528 123.585C466.153 122.805 465.643 122.214 465 121.814C464.361 121.413 463.645 121.213 462.852 121.213C462.06 121.213 461.342 121.413 460.698 121.814C460.059 122.214 459.55 122.805 459.17 123.585C458.795 124.364 458.608 125.321 458.608 126.455C458.608 127.588 458.795 128.545 459.17 129.325C459.55 130.104 460.059 130.695 460.698 131.095C461.342 131.496 462.06 131.696 462.852 131.696C463.645 131.696 464.361 131.496 465 131.095C465.643 130.695 466.153 130.104 466.528 129.325C466.907 128.545 467.097 127.588 467.097 126.455ZM475.464 123.182V124.46H470.171V123.182H475.464ZM471.756 133V121.827C471.756 121.264 471.888 120.795 472.153 120.42C472.417 120.045 472.76 119.764 473.182 119.577C473.604 119.389 474.049 119.295 474.518 119.295C474.888 119.295 475.191 119.325 475.425 119.385C475.66 119.445 475.835 119.5 475.95 119.551L475.515 120.855C475.438 120.83 475.332 120.798 475.195 120.759C475.063 120.721 474.888 120.702 474.671 120.702C474.173 120.702 473.813 120.827 473.591 121.079C473.374 121.33 473.265 121.699 473.265 122.185V133H471.756ZM481.95 123.182V124.46H476.657V123.182H481.95ZM478.243 133V121.827C478.243 121.264 478.375 120.795 478.639 120.42C478.903 120.045 479.246 119.764 479.668 119.577C480.09 119.389 480.535 119.295 481.004 119.295C481.375 119.295 481.677 119.325 481.912 119.385C482.146 119.445 482.321 119.5 482.436 119.551L482.001 120.855C481.925 120.83 481.818 120.798 481.682 120.759C481.55 120.721 481.375 120.702 481.157 120.702C480.659 120.702 480.299 120.827 480.077 121.079C479.86 121.33 479.751 121.699 479.751 122.185V133H478.243ZM484.064 133V123.182H485.573V133H484.064ZM484.831 121.545C484.537 121.545 484.284 121.445 484.071 121.245C483.862 121.045 483.757 120.804 483.757 120.523C483.757 120.241 483.862 120.001 484.071 119.8C484.284 119.6 484.537 119.5 484.831 119.5C485.125 119.5 485.377 119.6 485.586 119.8C485.799 120.001 485.905 120.241 485.905 120.523C485.905 120.804 485.799 121.045 485.586 121.245C485.377 121.445 485.125 121.545 484.831 121.545ZM492.324 133.205C491.404 133.205 490.611 132.987 489.947 132.553C489.282 132.118 488.77 131.519 488.412 130.756C488.055 129.994 487.876 129.122 487.876 128.142C487.876 127.145 488.059 126.265 488.425 125.502C488.796 124.735 489.312 124.136 489.972 123.706C490.637 123.271 491.412 123.054 492.299 123.054C492.989 123.054 493.611 123.182 494.165 123.438C494.719 123.693 495.173 124.051 495.527 124.511C495.881 124.972 496.1 125.509 496.185 126.122H494.677C494.562 125.675 494.306 125.278 493.91 124.933C493.518 124.584 492.989 124.409 492.324 124.409C491.736 124.409 491.221 124.562 490.778 124.869C490.339 125.172 489.996 125.6 489.748 126.154C489.506 126.704 489.384 127.349 489.384 128.091C489.384 128.849 489.503 129.51 489.742 130.072C489.985 130.635 490.326 131.072 490.765 131.383C491.208 131.694 491.728 131.849 492.324 131.849C492.716 131.849 493.072 131.781 493.392 131.645C493.711 131.509 493.982 131.312 494.204 131.057C494.425 130.801 494.583 130.494 494.677 130.136H496.185C496.1 130.716 495.889 131.238 495.552 131.702C495.22 132.163 494.779 132.529 494.229 132.802C493.684 133.07 493.049 133.205 492.324 133.205ZM498.39 133V123.182H499.899V133H498.39ZM499.157 121.545C498.863 121.545 498.61 121.445 498.397 121.245C498.188 121.045 498.084 120.804 498.084 120.523C498.084 120.241 498.188 120.001 498.397 119.8C498.61 119.6 498.863 119.5 499.157 119.5C499.452 119.5 499.703 119.6 499.912 119.8C500.125 120.001 500.231 120.241 500.231 120.523C500.231 120.804 500.125 121.045 499.912 121.245C499.703 121.445 499.452 121.545 499.157 121.545ZM505.551 133.23C504.929 133.23 504.364 133.113 503.857 132.879C503.35 132.64 502.947 132.297 502.649 131.849C502.351 131.398 502.202 130.852 502.202 130.213C502.202 129.651 502.313 129.195 502.534 128.845C502.756 128.491 503.052 128.214 503.423 128.014C503.793 127.814 504.202 127.665 504.65 127.567C505.102 127.464 505.555 127.384 506.011 127.324C506.608 127.247 507.092 127.19 507.462 127.151C507.837 127.109 508.11 127.038 508.281 126.94C508.455 126.842 508.543 126.672 508.543 126.429V126.378C508.543 125.747 508.37 125.257 508.025 124.908C507.684 124.558 507.166 124.384 506.472 124.384C505.751 124.384 505.187 124.541 504.778 124.857C504.369 125.172 504.081 125.509 503.915 125.866L502.483 125.355C502.739 124.759 503.08 124.294 503.506 123.962C503.936 123.625 504.405 123.391 504.912 123.259C505.423 123.122 505.926 123.054 506.42 123.054C506.736 123.054 507.098 123.092 507.507 123.169C507.92 123.241 508.319 123.393 508.702 123.623C509.09 123.853 509.412 124.2 509.668 124.665C509.923 125.129 510.051 125.751 510.051 126.531V133H508.543V131.67H508.466C508.364 131.884 508.193 132.112 507.955 132.354C507.716 132.597 507.398 132.804 507.002 132.974C506.606 133.145 506.122 133.23 505.551 133.23ZM505.781 131.875C506.378 131.875 506.881 131.758 507.29 131.523C507.703 131.289 508.014 130.987 508.223 130.616C508.436 130.245 508.543 129.855 508.543 129.446V128.065C508.479 128.142 508.338 128.212 508.121 128.276C507.908 128.336 507.661 128.389 507.379 128.436C507.102 128.479 506.832 128.517 506.567 128.551C506.308 128.581 506.097 128.607 505.935 128.628C505.543 128.679 505.176 128.762 504.835 128.877C504.499 128.988 504.226 129.156 504.017 129.382C503.813 129.604 503.71 129.906 503.71 130.29C503.71 130.814 503.904 131.21 504.292 131.479C504.684 131.743 505.18 131.875 505.781 131.875ZM514.313 119.909V133H512.805V119.909H514.313ZM522.343 133V119.909H526.92C527.832 119.909 528.584 120.067 529.176 120.382C529.768 120.693 530.21 121.113 530.499 121.641C530.789 122.165 530.934 122.747 530.934 123.386C530.934 123.949 530.834 124.413 530.634 124.78C530.438 125.146 530.178 125.436 529.854 125.649C529.534 125.862 529.187 126.02 528.812 126.122V126.25C529.212 126.276 529.615 126.416 530.02 126.672C530.425 126.928 530.763 127.294 531.036 127.771C531.309 128.249 531.445 128.832 531.445 129.523C531.445 130.179 531.296 130.769 530.998 131.293C530.7 131.817 530.229 132.233 529.585 132.54C528.942 132.847 528.104 133 527.073 133H522.343ZM523.928 131.594H527.073C528.109 131.594 528.844 131.393 529.278 130.993C529.717 130.588 529.937 130.098 529.937 129.523C529.937 129.08 529.824 128.67 529.598 128.295C529.372 127.916 529.05 127.614 528.633 127.388C528.215 127.158 527.721 127.043 527.15 127.043H523.928V131.594ZM523.928 125.662H526.869C527.346 125.662 527.776 125.568 528.16 125.381C528.548 125.193 528.854 124.929 529.08 124.588C529.31 124.247 529.425 123.847 529.425 123.386C529.425 122.811 529.225 122.323 528.825 121.923C528.424 121.518 527.789 121.315 526.92 121.315H523.928V125.662ZM533.846 133V123.182H535.303V124.665H535.405C535.584 124.179 535.908 123.785 536.377 123.482C536.846 123.18 537.374 123.028 537.962 123.028C538.073 123.028 538.211 123.031 538.377 123.035C538.544 123.039 538.669 123.045 538.755 123.054V124.588C538.703 124.575 538.586 124.556 538.403 124.531C538.224 124.501 538.034 124.486 537.834 124.486C537.357 124.486 536.931 124.586 536.556 124.786C536.185 124.982 535.891 125.255 535.674 125.604C535.461 125.95 535.354 126.344 535.354 126.787V133H533.846ZM543.432 133.23C542.81 133.23 542.245 133.113 541.738 132.879C541.231 132.64 540.828 132.297 540.53 131.849C540.232 131.398 540.083 130.852 540.083 130.213C540.083 129.651 540.193 129.195 540.415 128.845C540.637 128.491 540.933 128.214 541.303 128.014C541.674 127.814 542.083 127.665 542.531 127.567C542.982 127.464 543.436 127.384 543.892 127.324C544.489 127.247 544.972 127.19 545.343 127.151C545.718 127.109 545.991 127.038 546.161 126.94C546.336 126.842 546.423 126.672 546.423 126.429V126.378C546.423 125.747 546.251 125.257 545.906 124.908C545.565 124.558 545.047 124.384 544.352 124.384C543.632 124.384 543.068 124.541 542.659 124.857C542.249 125.172 541.962 125.509 541.796 125.866L540.364 125.355C540.619 124.759 540.96 124.294 541.387 123.962C541.817 123.625 542.286 123.391 542.793 123.259C543.304 123.122 543.807 123.054 544.301 123.054C544.617 123.054 544.979 123.092 545.388 123.169C545.801 123.241 546.2 123.393 546.583 123.623C546.971 123.853 547.293 124.2 547.548 124.665C547.804 125.129 547.932 125.751 547.932 126.531V133H546.423V131.67H546.347C546.244 131.884 546.074 132.112 545.835 132.354C545.597 132.597 545.279 132.804 544.883 132.974C544.487 133.145 544.003 133.23 543.432 133.23ZM543.662 131.875C544.259 131.875 544.762 131.758 545.171 131.523C545.584 131.289 545.895 130.987 546.104 130.616C546.317 130.245 546.423 129.855 546.423 129.446V128.065C546.36 128.142 546.219 128.212 546.002 128.276C545.789 128.336 545.541 128.389 545.26 128.436C544.983 128.479 544.713 128.517 544.448 128.551C544.188 128.581 543.977 128.607 543.816 128.628C543.423 128.679 543.057 128.762 542.716 128.877C542.379 128.988 542.107 129.156 541.898 129.382C541.693 129.604 541.591 129.906 541.591 130.29C541.591 130.814 541.785 131.21 542.173 131.479C542.565 131.743 543.061 131.875 543.662 131.875ZM552.194 127.094V133H550.685V123.182H552.143V124.716H552.271C552.501 124.217 552.85 123.817 553.319 123.514C553.788 123.207 554.393 123.054 555.134 123.054C555.799 123.054 556.381 123.19 556.879 123.463C557.378 123.732 557.766 124.141 558.043 124.69C558.32 125.236 558.458 125.926 558.458 126.761V133H556.95V126.864C556.95 126.092 556.749 125.491 556.349 125.061C555.948 124.626 555.398 124.409 554.7 124.409C554.218 124.409 553.788 124.513 553.408 124.722C553.033 124.931 552.737 125.236 552.52 125.636C552.303 126.037 552.194 126.523 552.194 127.094ZM564.922 133.205C564.104 133.205 563.382 132.998 562.755 132.585C562.129 132.167 561.639 131.579 561.285 130.82C560.931 130.058 560.754 129.156 560.754 128.116C560.754 127.085 560.931 126.19 561.285 125.432C561.639 124.673 562.131 124.087 562.762 123.674C563.392 123.261 564.121 123.054 564.948 123.054C565.587 123.054 566.092 123.161 566.463 123.374C566.838 123.582 567.123 123.821 567.319 124.089C567.519 124.354 567.675 124.571 567.786 124.741H567.914V119.909H569.422V133H567.965V131.491H567.786C567.675 131.67 567.517 131.896 567.313 132.169C567.108 132.437 566.816 132.678 566.437 132.891C566.058 133.1 565.553 133.205 564.922 133.205ZM565.127 131.849C565.732 131.849 566.243 131.692 566.661 131.376C567.078 131.057 567.396 130.616 567.613 130.053C567.83 129.487 567.939 128.832 567.939 128.091C567.939 127.358 567.833 126.717 567.619 126.167C567.406 125.613 567.091 125.183 566.673 124.876C566.256 124.565 565.74 124.409 565.127 124.409C564.487 124.409 563.955 124.573 563.529 124.901C563.107 125.225 562.789 125.666 562.576 126.224C562.367 126.778 562.263 127.401 562.263 128.091C562.263 128.79 562.369 129.425 562.583 129.996C562.8 130.562 563.119 131.014 563.541 131.351C563.968 131.683 564.496 131.849 565.127 131.849ZM578.198 133H576.536L581.343 119.909H582.98L587.786 133H586.124L582.213 121.98H582.11L578.198 133ZM578.812 127.886H585.511V129.293H578.812V127.886ZM596.575 125.381L595.22 125.764C595.135 125.538 595.009 125.319 594.843 125.106C594.681 124.888 594.46 124.71 594.178 124.569C593.897 124.428 593.537 124.358 593.098 124.358C592.497 124.358 591.997 124.496 591.596 124.773C591.2 125.046 591.002 125.393 591.002 125.815C591.002 126.19 591.138 126.487 591.411 126.704C591.683 126.921 592.11 127.102 592.689 127.247L594.146 127.605C595.024 127.818 595.678 128.144 596.109 128.583C596.539 129.018 596.754 129.578 596.754 130.264C596.754 130.827 596.593 131.33 596.269 131.773C595.949 132.216 595.502 132.565 594.926 132.821C594.351 133.077 593.682 133.205 592.919 133.205C591.918 133.205 591.089 132.987 590.433 132.553C589.776 132.118 589.361 131.483 589.186 130.648L590.618 130.29C590.754 130.818 591.012 131.214 591.392 131.479C591.775 131.743 592.276 131.875 592.894 131.875C593.597 131.875 594.155 131.726 594.568 131.428C594.986 131.125 595.195 130.763 595.195 130.341C595.195 130 595.075 129.714 594.837 129.484C594.598 129.25 594.232 129.075 593.737 128.96L592.101 128.577C591.202 128.364 590.541 128.033 590.119 127.586C589.702 127.134 589.493 126.57 589.493 125.892C589.493 125.338 589.649 124.848 589.96 124.422C590.275 123.996 590.703 123.661 591.244 123.418C591.79 123.175 592.408 123.054 593.098 123.054C594.07 123.054 594.833 123.267 595.387 123.693C595.945 124.119 596.341 124.682 596.575 125.381ZM605.98 125.381L604.625 125.764C604.539 125.538 604.414 125.319 604.248 125.106C604.086 124.888 603.864 124.71 603.583 124.569C603.301 124.428 602.941 124.358 602.502 124.358C601.902 124.358 601.401 124.496 601 124.773C600.604 125.046 600.406 125.393 600.406 125.815C600.406 126.19 600.542 126.487 600.815 126.704C601.088 126.921 601.514 127.102 602.093 127.247L603.551 127.605C604.429 127.818 605.083 128.144 605.513 128.583C605.944 129.018 606.159 129.578 606.159 130.264C606.159 130.827 605.997 131.33 605.673 131.773C605.353 132.216 604.906 132.565 604.331 132.821C603.755 133.077 603.086 133.205 602.324 133.205C601.322 133.205 600.493 132.987 599.837 132.553C599.181 132.118 598.765 131.483 598.591 130.648L600.022 130.29C600.159 130.818 600.417 131.214 600.796 131.479C601.179 131.743 601.68 131.875 602.298 131.875C603.001 131.875 603.559 131.726 603.973 131.428C604.39 131.125 604.599 130.763 604.599 130.341C604.599 130 604.48 129.714 604.241 129.484C604.002 129.25 603.636 129.075 603.142 128.96L601.505 128.577C600.606 128.364 599.946 128.033 599.524 127.586C599.106 127.134 598.897 126.57 598.897 125.892C598.897 125.338 599.053 124.848 599.364 124.422C599.679 123.996 600.108 123.661 600.649 123.418C601.194 123.175 601.812 123.054 602.502 123.054C603.474 123.054 604.237 123.267 604.791 123.693C605.349 124.119 605.745 124.682 605.98 125.381ZM612.546 133.205C611.6 133.205 610.784 132.996 610.098 132.578C609.416 132.156 608.89 131.568 608.519 130.814C608.153 130.055 607.969 129.173 607.969 128.168C607.969 127.162 608.153 126.276 608.519 125.509C608.89 124.737 609.405 124.136 610.066 123.706C610.731 123.271 611.506 123.054 612.393 123.054C612.904 123.054 613.409 123.139 613.907 123.31C614.406 123.48 614.86 123.757 615.269 124.141C615.678 124.52 616.004 125.023 616.247 125.649C616.49 126.276 616.611 127.047 616.611 127.963V128.602H609.043V127.298H615.077C615.077 126.744 614.966 126.25 614.745 125.815C614.528 125.381 614.216 125.038 613.812 124.786C613.411 124.535 612.938 124.409 612.393 124.409C611.792 124.409 611.272 124.558 610.833 124.857C610.398 125.151 610.064 125.534 609.829 126.007C609.595 126.48 609.478 126.987 609.478 127.528V128.398C609.478 129.139 609.606 129.768 609.861 130.283C610.121 130.795 610.481 131.185 610.942 131.453C611.402 131.717 611.937 131.849 612.546 131.849C612.942 131.849 613.3 131.794 613.62 131.683C613.944 131.568 614.223 131.398 614.457 131.172C614.692 130.942 614.873 130.656 615.001 130.315L616.458 130.724C616.305 131.219 616.047 131.653 615.684 132.028C615.322 132.399 614.875 132.689 614.342 132.898C613.809 133.102 613.211 133.205 612.546 133.205ZM623.176 123.182V124.46H618.088V123.182H623.176ZM619.571 120.83H621.079V130.188C621.079 130.614 621.141 130.933 621.265 131.146C621.393 131.355 621.555 131.496 621.751 131.568C621.951 131.636 622.162 131.67 622.383 131.67C622.55 131.67 622.686 131.662 622.792 131.645C622.899 131.624 622.984 131.607 623.048 131.594L623.355 132.949C623.253 132.987 623.11 133.026 622.927 133.064C622.743 133.107 622.511 133.128 622.23 133.128C621.804 133.128 621.386 133.036 620.977 132.853C620.572 132.67 620.236 132.391 619.967 132.016C619.703 131.641 619.571 131.168 619.571 130.597V120.83ZM632.224 125.381L630.869 125.764C630.784 125.538 630.658 125.319 630.492 125.106C630.33 124.888 630.108 124.71 629.827 124.569C629.546 124.428 629.186 124.358 628.747 124.358C628.146 124.358 627.645 124.496 627.244 124.773C626.848 125.046 626.65 125.393 626.65 125.815C626.65 126.19 626.786 126.487 627.059 126.704C627.332 126.921 627.758 127.102 628.338 127.247L629.795 127.605C630.673 127.818 631.327 128.144 631.757 128.583C632.188 129.018 632.403 129.578 632.403 130.264C632.403 130.827 632.241 131.33 631.917 131.773C631.597 132.216 631.15 132.565 630.575 132.821C629.999 133.077 629.33 133.205 628.568 133.205C627.566 133.205 626.737 132.987 626.081 132.553C625.425 132.118 625.009 131.483 624.835 130.648L626.267 130.29C626.403 130.818 626.661 131.214 627.04 131.479C627.423 131.743 627.924 131.875 628.542 131.875C629.245 131.875 629.803 131.726 630.217 131.428C630.634 131.125 630.843 130.763 630.843 130.341C630.843 130 630.724 129.714 630.485 129.484C630.247 129.25 629.88 129.075 629.386 128.96L627.749 128.577C626.85 128.364 626.19 128.033 625.768 127.586C625.35 127.134 625.142 126.57 625.142 125.892C625.142 125.338 625.297 124.848 625.608 124.422C625.923 123.996 626.352 123.661 626.893 123.418C627.438 123.175 628.056 123.054 628.747 123.054C629.718 123.054 630.481 123.267 631.035 123.693C631.593 124.119 631.99 124.682 632.224 125.381Z" fill="#2388FF"/>
<a href="https://business.pinterest.com/es/brand-guidelines/">
<rect fill="black" fill-opacity="0" y="5.10795" width="177.298" height="21.7841"/>
</a>
<path d="M655.554 120.423L644.947 131.029" stroke="#2388FF" stroke-width="1.5" stroke-linecap="round" stroke-linejoin="round"/>
<path d="M647.015 120.44L655.553 120.422L655.535 128.96" stroke="#2388FF" stroke-width="1.5" stroke-linecap="round" stroke-linejoin="round"/>
<path d="M133.908 242.125C111.837 242.125 94.0039 259.991 94.0039 282.029C94.0039 298.943 104.514 313.393 119.358 319.207C118.997 316.054 118.702 311.193 119.49 307.745C120.212 304.624 124.153 287.908 124.153 287.908C124.153 287.908 122.971 285.51 122.971 281.996C122.971 276.446 126.19 272.307 130.197 272.307C133.612 272.307 135.254 274.869 135.254 277.923C135.254 281.339 133.087 286.462 131.937 291.225C130.985 295.199 133.941 298.45 137.849 298.45C144.943 298.45 150.395 290.962 150.395 280.19C150.395 270.632 143.531 263.965 133.711 263.965C122.347 263.965 115.68 272.472 115.68 281.273C115.68 284.689 116.994 288.367 118.636 290.371C118.964 290.765 118.997 291.126 118.899 291.52C118.603 292.768 117.913 295.494 117.782 296.053C117.618 296.775 117.191 296.939 116.435 296.578C111.509 294.213 108.422 286.922 108.422 281.076C108.422 268.498 117.552 256.937 134.794 256.937C148.621 256.937 159.394 266.79 159.394 279.993C159.394 293.753 150.723 304.821 138.703 304.821C134.663 304.821 130.853 302.72 129.573 300.224C129.573 300.224 127.569 307.843 127.076 309.715C126.19 313.196 123.759 317.532 122.117 320.192C125.861 321.341 129.802 321.965 133.941 321.965C155.978 321.965 173.844 304.099 173.844 282.062C173.812 259.991 155.945 242.125 133.908 242.125Z" fill="#E60019"/>
<path d="M377.078 274.375C377.078 267.828 382.596 260 393.506 260C402.32 260 408.095 266.331 408.048 273.098C408.048 282.122 403.043 288.883 395.642 288.883C393.16 288.883 390.85 287.557 390.037 286.018C390.037 286.018 388.711 291.322 388.411 292.349C387.517 295.659 384.994 298.93 384.384 299.72C384.324 299.798 384.282 299.852 384.263 299.88C384.093 300.093 383.749 300.006 383.706 299.75C383.702 299.71 383.692 299.634 383.677 299.526C383.534 298.475 382.977 294.397 383.793 291.023C384.222 289.14 386.745 278.487 386.745 278.487C386.745 278.487 386.019 277.034 386.019 274.851C386.019 271.426 387.985 268.903 390.467 268.903C392.563 268.903 393.589 270.486 393.589 272.369C393.589 273.708 393.048 275.485 392.478 277.352C392.157 278.406 391.827 279.49 391.58 280.54C391.024 282.979 392.82 284.988 395.216 284.988C399.537 284.988 402.49 279.383 402.49 272.752C402.49 267.704 399.068 263.938 392.906 263.938C385.935 263.938 381.57 269.157 381.57 274.975C381.57 276.944 382.126 278.354 383.066 279.467C383.496 279.98 383.579 280.193 383.409 280.75C383.283 281.176 383.026 282.203 382.939 282.589C382.766 283.146 382.296 283.359 381.783 283.146C378.574 281.863 377.078 278.311 377.078 274.375Z" fill="#E60019"/>
<path fill-rule="evenodd" clip-rule="evenodd" d="M529.978 279.207H533.827C534.34 279.207 534.683 278.993 534.767 278.524C534.937 277.797 535.237 276.598 535.323 276.258C535.453 275.831 535.193 275.488 534.68 275.488H530.872C530.916 275.302 530.985 275.043 531.068 274.728C531.467 273.225 532.198 270.466 532.198 268.557C532.198 263.978 528.306 260.043 522.744 260.043C516.5 260.043 512.434 264.235 512.434 270.14C512.434 271.852 513.077 273.862 513.89 275.101C513.719 275.101 513.548 275.091 513.377 275.08C513.206 275.069 513.036 275.058 512.864 275.058C508.116 275.058 505.12 277.624 505.12 281.389C505.12 284.898 507.902 286.268 510.511 287.164C510.858 287.286 511.201 287.399 511.533 287.508C513.415 288.124 514.96 288.631 514.96 290.16C514.96 291.399 513.804 292.086 511.495 292.086C508.756 292.086 507.259 290.803 506.873 290.333C507.129 290.12 507.516 289.65 507.516 288.837C507.516 287.724 506.703 286.784 505.25 286.784C504.01 286.784 502.941 287.81 502.684 289.136C500.675 290.763 498.492 291.832 495.41 291.832C492.371 291.832 490.788 290.249 490.788 286.87C491.515 287.084 493.354 287.34 494.597 287.34C499.772 287.34 503.281 284.988 503.281 280.323C503.281 277.8 501.055 275.148 496.693 275.148C490.918 275.148 487.709 278.783 486.296 282.805C485.91 282.719 485.526 282.635 485.1 282.549C485.4 281.649 485.656 280.623 485.656 279.47C485.656 277.5 484.417 275.148 481.121 275.148C478.812 275.148 476.673 276.644 475.173 278.913C475.56 277.457 475.816 276.474 475.816 276.39C475.903 276.004 475.773 275.577 475.173 275.577H471.794C471.324 275.577 470.981 275.747 470.855 276.304C470.768 276.69 469.615 281.222 468.459 285.631C467.732 288.413 464.053 291.835 459.432 291.835C456.393 291.835 454.81 290.166 454.81 286.787C455.623 287.087 457.376 287.387 458.619 287.387C463.967 287.387 467.302 285.034 467.302 280.369C467.302 277.847 465.077 275.194 460.715 275.194C454.213 275.194 450.235 280.242 449.592 285.934C449.292 288.33 447.326 291.582 445.143 291.582C444.073 291.582 443.474 290.899 443.474 289.786C443.474 288.957 443.959 287.126 444.574 284.804L444.575 284.801C444.689 284.368 444.808 283.918 444.93 283.454C445.186 282.471 445.573 280.932 445.999 279.219H449.508C450.021 279.219 450.321 279.006 450.448 278.536C450.618 277.809 450.918 276.61 451.004 276.27C451.134 275.843 450.875 275.5 450.361 275.5H446.896C446.896 275.5 448.479 269.126 448.522 268.956C448.692 268.313 448.136 267.929 447.582 268.056C447.582 268.056 444.886 268.569 444.417 268.699C443.903 268.786 443.517 269.085 443.347 269.812C443.304 269.898 441.934 275.543 441.934 275.543H439.152C438.639 275.543 438.339 275.757 438.212 276.227C438.042 276.953 437.742 278.153 437.656 278.493C437.526 278.919 437.785 279.262 438.299 279.262H441.038C441.038 279.293 440.914 279.774 440.721 280.529C440.368 281.905 439.782 284.194 439.285 286.32C438.898 287.903 437.702 291.625 435.649 291.625C434.453 291.625 433.937 291.025 433.937 289.699C433.937 288.708 434.405 286.997 434.89 285.229C435.409 283.336 435.946 281.375 435.946 280.159C435.946 277.037 434.277 275.24 430.854 275.24C428.672 275.24 426.449 276.653 425.506 277.85C425.506 277.85 425.806 276.867 425.893 276.48C425.979 276.054 425.763 275.667 425.25 275.667H421.914C421.188 275.667 421.014 276.054 420.888 276.48L420.792 276.86C420.481 278.092 419.472 282.09 418.492 285.934C417.679 289.056 415.753 291.665 413.7 291.665C412.63 291.665 412.161 290.982 412.161 289.869C412.161 289.062 412.594 287.302 413.151 285.04C413.273 284.548 413.4 284.031 413.53 283.495C414.2 280.788 414.821 278.436 415.13 277.27C415.236 276.869 415.305 276.608 415.326 276.52C415.456 276.094 415.24 275.664 414.643 275.664H411.264C410.664 275.664 410.451 275.964 410.324 276.434C410.324 276.434 409.384 280.026 408.355 284.048C408.242 284.499 408.127 284.952 408.014 285.399C407.396 287.835 406.815 290.122 406.815 291.279C406.815 293.761 407.928 295.644 411.007 295.644C413.36 295.644 415.243 294.448 416.655 292.905C416.442 293.718 416.312 294.274 416.312 294.318C416.182 294.788 416.356 295.217 416.912 295.217H420.378C420.977 295.217 421.191 294.961 421.317 294.448L424.013 283.794C424.696 281.055 426.366 279.259 428.762 279.259C429.874 279.259 430.858 279.986 430.731 281.442C430.679 282.068 430.347 283.345 429.964 284.815C429.38 287.06 428.678 289.756 428.678 291.282C428.678 293.165 429.361 295.647 432.957 295.647C435.396 295.647 437.192 294.491 438.475 292.951C438.945 294.534 440.228 295.647 442.54 295.647C446.389 295.647 448.745 293.381 450.071 291.069C451.184 293.721 453.879 295.647 457.772 295.647C461.75 295.647 464.829 293.978 466.969 291.712L466.911 291.942C466.557 293.352 466.324 294.282 466.285 294.364C466.156 294.834 466.372 295.22 466.928 295.22H470.351C470.821 295.22 471.164 294.964 471.29 294.494C471.311 294.37 471.441 293.87 471.646 293.078C471.867 292.226 472.176 291.036 472.53 289.616C473.856 284.441 475.996 279.049 479.248 279.049C480.404 279.049 480.831 279.692 480.831 280.675C480.831 281.145 480.701 281.575 480.574 281.788C479.034 281.488 477.752 282.258 477.752 283.927C477.752 284.997 478.908 285.98 480.447 285.98C481.644 285.98 482.587 285.68 483.356 285.167C484.083 285.297 484.853 285.467 485.666 285.68C485.536 286.45 485.496 287.22 485.496 287.946C485.496 292.095 488.448 295.647 493.796 295.647C497.988 295.647 500.854 294.108 503.293 292.182C504.489 294.108 507.485 295.69 511.42 295.69C516.812 295.69 519.891 292.868 519.891 289.189C519.891 285.853 517.152 284.611 514.286 283.584C513.974 283.468 513.668 283.36 513.374 283.256C511.491 282.591 510.051 282.081 510.051 280.675C510.051 279.349 511.12 278.706 512.917 278.706C514.043 278.706 514.923 278.95 515.402 279.082L515.439 279.092C515.909 280.249 516.852 281.532 518.518 281.532C519.931 281.532 520.528 280.419 520.528 279.436C520.528 278.251 519.733 277.499 518.791 276.607C517.419 275.31 515.736 273.717 515.736 270.065C515.736 266.217 517.919 263.048 522.41 263.048C525.533 263.048 527.585 265.017 527.585 268.266C527.585 270.919 525.959 275.624 525.959 275.624H523.22C522.707 275.624 522.407 275.837 522.281 276.307C522.111 277.034 521.811 278.233 521.724 278.573C521.594 279 521.854 279.343 522.367 279.343H525.02C525.02 279.343 522.281 289.483 522.281 291.365C522.281 293.848 523.693 295.731 526.729 295.731C531.051 295.731 533.787 292.908 534.943 288.843C535.03 288.543 534.857 288.286 534.516 288.286H532.847C532.504 288.286 532.334 288.456 532.247 288.8C531.861 290.256 530.964 291.795 529.125 291.795C528.055 291.795 527.456 291.112 527.456 289.999C527.456 289.145 527.941 287.32 528.602 284.836C528.701 284.461 528.805 284.071 528.912 283.668C529.295 281.946 529.978 279.207 529.978 279.207ZM495.84 279.037C497.379 279.037 498.106 280.063 498.106 281.263C498.106 283.315 496.523 284.558 494.04 284.558C493.141 284.558 491.901 284.345 491.175 284.088C491.434 282.246 492.804 279.037 495.84 279.037ZM459.818 279.037C461.487 279.037 462.084 280.063 462.084 281.263C462.084 283.315 460.501 284.558 458.019 284.558C457.119 284.558 455.88 284.345 455.153 284.088C455.413 282.246 456.609 279.037 459.818 279.037Z" fill="#E60019"/>
<path d="M413.443 274.116C415.156 274.116 416.822 272.703 417.078 270.907C417.422 269.194 416.265 267.741 414.556 267.741C412.843 267.741 411.177 269.154 410.92 270.907C410.534 272.663 411.647 274.116 413.443 274.116Z" fill="#E60019"/>
</svg>
